<svg xmlns="http://www.w3.org/2000/svg" width="1040" height="548" viewBox="0 0 1040 548" role="img" aria-labelledby="title desc">
  <title id="title">TikTok 历史任务：三条业务线，逐项交接</title>
  <desc id="desc">WB-02 历史记录整理，非界面截图。输入是三条业务线的现有素材、账户设置和旧结构；投手审阅结构、素材与旧线处理，部分条件仍待确认；Agent 调整素材组合、创建结构、读取对象状态并交接。当时回执中业务线 A、B 为 AD_STATUS_DELIVERY_OK，业务线 C 为 AD_STATUS_AUDIT。可投不等于有消耗，本图不证明当前状态或效果。</desc>
  <defs>
    <marker id="arrow" viewBox="0 0 8 8" refX="6" refY="4" markerWidth="6" markerHeight="6" orient="auto-start-reverse">
      <path d="M1 1 L6 4 L1 7" fill="none" stroke="#788ca3" stroke-width="1.6" stroke-linecap="round" stroke-linejoin="round"/>
    </marker>
    <style>
      text { font-family: -apple-system, BlinkMacSystemFont, "Segoe UI", "Noto Sans CJK SC", "Microsoft YaHei", sans-serif; }
      .title { font-size: 29px; font-weight: 750; fill: #152d46; }
      .subtitle { font-size: 16px; fill: #52667e; }
      .heading { font-size: 22px; font-weight: 700; fill: #152d46; }
      .body { font-size: 19px; fill: #41556d; }
      .number { font-size: 13px; font-weight: 700; fill: #3154bf; }
      .code { font-family: ui-monospace, SFMono-Regular, Consolas, monospace; font-size: 13px; fill: #52667e; }
      .line { font-size: 18px; font-weight: 650; fill: #344b62; }
      .status { font-size: 23px; font-weight: 750; }
      .foot { font-size: 16px; fill: #52667e; }
    </style>
  </defs>
  <rect width="1040" height="548" rx="20" fill="#f4f7fb"/>
  <text x="32" y="47" class="title">一次 TikTok 建单任务，怎样交接</text>
  <text x="32" y="77" class="subtitle">WB-02 · 历史记录整理 · 非界面截图</text>

  <g>
    <rect x="32" y="104" width="304" height="180" rx="14" fill="#fff" stroke="#ccd8e5"/>
    <circle cx="64" cy="136" r="15" fill="#edf1ff"/>
    <text x="64" y="141" class="number" text-anchor="middle">01</text>
    <text x="90" y="144" class="heading">任务输入</text>
    <text x="54" y="185" class="body">三条业务线</text>
    <text x="54" y="216" class="body">现有素材与账户设置</text>
    <text x="54" y="247" class="body">需要处理的旧投放结构</text>
  </g>
  <path d="M344 194 H358" fill="none" stroke="#788ca3" stroke-width="2" marker-end="url(#arrow)"/>
  <g>
    <rect x="368" y="104" width="304" height="180" rx="14" fill="#fff" stroke="#ccd8e5"/>
    <circle cx="400" cy="136" r="15" fill="#edf1ff"/>
    <text x="400" y="141" class="number" text-anchor="middle">02</text>
    <text x="426" y="144" class="heading">投手审阅</text>
    <text x="390" y="185" class="body">结构、素材选择</text>
    <text x="390" y="216" class="body">以及旧线的处理范围</text>
    <rect x="390" y="235" width="224" height="29" rx="7" fill="#fff2cf"/>
    <text x="402" y="255" font-size="16" font-weight="600" fill="#805300">部分条件仍待确认</text>
  </g>
  <path d="M680 194 H694" fill="none" stroke="#788ca3" stroke-width="2" marker-end="url(#arrow)"/>
  <g>
    <rect x="704" y="104" width="304" height="180" rx="14" fill="#fff" stroke="#ccd8e5"/>
    <circle cx="736" cy="136" r="15" fill="#edf1ff"/>
    <text x="736" y="141" class="number" text-anchor="middle">03</text>
    <text x="762" y="144" class="heading">Agent 处理</text>
    <text x="726" y="185" class="body">调整素材组合并创建结构</text>
    <text x="726" y="216" class="body">读取对象状态</text>
    <text x="726" y="247" class="body">交接结果与未完成项</text>
  </g>
  <path d="M856 291 V307" fill="none" stroke="#788ca3" stroke-width="2" marker-end="url(#arrow)"/>

  <rect x="32" y="316" width="976" height="150" rx="14" fill="#fff" stroke="#bdccdc"/>
  <text x="54" y="349" font-size="21" font-weight="700" fill="#152d46">交付｜历史回执中的逐项状态</text>
  <text x="986" y="349" font-size="18" font-weight="650" fill="#344b62" text-anchor="end">2 条可投 · 1 条审核中</text>
  <g>
    <rect x="52" y="365" width="300" height="81" rx="10" fill="#eaf7f0"/>
    <text x="70" y="395" class="line">业务线 A</text>
    <text x="332" y="395" class="status" text-anchor="end" fill="#066a50">可投</text>
    <text x="70" y="426" class="code">AD_STATUS_DELIVERY_OK</text>
  </g>
  <g>
    <rect x="370" y="365" width="300" height="81" rx="10" fill="#eaf7f0"/>
    <text x="388" y="395" class="line">业务线 B</text>
    <text x="650" y="395" class="status" text-anchor="end" fill="#066a50">可投</text>
    <text x="388" y="426" class="code">AD_STATUS_DELIVERY_OK</text>
  </g>
  <g>
    <rect x="688" y="365" width="300" height="81" rx="10" fill="#fff3d9"/>
    <text x="706" y="395" class="line">业务线 C</text>
    <text x="968" y="395" class="status" text-anchor="end" fill="#805300">审核中</text>
    <text x="706" y="426" class="code">AD_STATUS_AUDIT</text>
  </g>
  <text x="32" y="499" class="foot">可投状态 ≠ 已观察到消耗。审核中对象仍需后续核验。</text>
  <text x="32" y="525" class="foot">仅汇总当时回执，不证明当前状态、实际消耗或投放效果。</text>
</svg>
